<svg preserveAspectRatio="none" overflow="visible" style="display: block;" width="14" height="14" viewBox="0 0 14 14" fill="none" xmlns="http://www.w3.org/2000/svg">
<g id="Icon">
<path id="Vector" d="M8.75 1.16667H3.5C3.19058 1.16667 2.89383 1.28958 2.67504 1.50838C2.45625 1.72717 2.33333 2.02391 2.33333 2.33333V11.6667C2.33333 11.9761 2.45625 12.2728 2.67504 12.4916C2.89383 12.7104 3.19058 12.8333 3.5 12.8333H10.5C10.8094 12.8333 11.1062 12.7104 11.325 12.4916C11.5437 12.2728 11.6667 11.9761 11.6667 11.6667V4.08333L8.75 1.16667Z" stroke="#C8D8F0" stroke-width="1.16667" stroke-linecap="round" stroke-linejoin="round"/>
<path id="Vector_2" d="M8.16667 1.16667V3.5C8.16667 3.80942 8.28958 4.10617 8.50838 4.32496C8.72717 4.54375 9.02391 4.66667 9.33333 4.66667H11.6667" stroke="#C8D8F0" stroke-width="1.16667" stroke-linecap="round" stroke-linejoin="round"/>
<path id="Vector_3" d="M5.83333 5.25H4.66667" stroke="#C8D8F0" stroke-width="1.16667" stroke-linecap="round" stroke-linejoin="round"/>
<path id="Vector_4" d="M9.33333 7.58333H4.66667" stroke="#C8D8F0" stroke-width="1.16667" stroke-linecap="round" stroke-linejoin="round"/>
<path id="Vector_5" d="M9.33333 9.91667H4.66667" stroke="#C8D8F0" stroke-width="1.16667" stroke-linecap="round" stroke-linejoin="round"/>
</g>
</svg>
